<?xml version="1.0" encoding="UTF-8" standalone="no"?>
<svg
   xmlns:dc="http://purl.org/dc/elements/1.1/"
   xmlns:cc="http://creativecommons.org/ns#"
   xmlns:rdf="http://www.w3.org/1999/02/22-rdf-syntax-ns#"
   xmlns:svg="http://www.w3.org/2000/svg"
   xmlns="http://www.w3.org/2000/svg"
   viewBox="0 0 1122.5197 793.70081"
   height="793.70081"
   width="1122.5197"
   xml:space="preserve"
   id="svg2"
   version="1.1"><metadata
     id="metadata8"><rdf:RDF><cc:Work
         rdf:about=""><dc:format>image/svg+xml</dc:format><dc:type
           rdf:resource="http://purl.org/dc/dcmitype/StillImage" /></cc:Work></rdf:RDF></metadata><defs
     id="defs6"><clipPath
       id="clipPath20"
       clipPathUnits="userSpaceOnUse"><path
         style="clip-rule:evenodd"
         id="path18"
         d="M 7.503967,587.7717 H 834.3859 V 7.503845 H 7.503967 V 587.7717" /></clipPath><clipPath
       id="clipPath58"
       clipPathUnits="userSpaceOnUse"><path
         style="clip-rule:evenodd"
         id="path56"
         d="M 7.503967,587.7717 H 834.3859 V 7.503845 H 7.503967 V 587.7717" /></clipPath><clipPath
       id="clipPath64"
       clipPathUnits="userSpaceOnUse"><path
         style="clip-rule:evenodd"
         id="path62"
         d="M 105.5655,119.7711 V 475.5044 H 736.3243 V 119.7711 H 105.5655" /></clipPath><clipPath
       id="clipPath78"
       clipPathUnits="userSpaceOnUse"><path
         style="clip-rule:evenodd"
         id="path76"
         d="M 7.503967,587.7717 H 834.3859 V 7.503845 H 7.503967 V 587.7717" /></clipPath><clipPath
       id="clipPath84"
       clipPathUnits="userSpaceOnUse"><path
         style="clip-rule:evenodd"
         id="path82"
         d="M 105.5655,119.7711 V 475.5044 H 736.3243 V 119.7711 H 105.5655" /></clipPath><clipPath
       id="clipPath98"
       clipPathUnits="userSpaceOnUse"><path
         style="clip-rule:evenodd"
         id="path96"
         d="M 7.503967,587.7717 H 834.3859 V 7.503845 H 7.503967 V 587.7717" /></clipPath><clipPath
       id="clipPath104"
       clipPathUnits="userSpaceOnUse"><path
         style="clip-rule:evenodd"
         id="path102"
         d="M 105.5655,119.7711 V 475.5044 H 736.3243 V 119.7711 H 105.5655" /></clipPath></defs><g
     transform="matrix(1.3333333,0,0,-1.3333333,0,793.7008)"
     id="g10"><g
       id="g12" /><g
       id="g14"><g
         clip-path="url(#clipPath20)"
         id="g16"><path
           id="path22"
           style="fill:#000000;fill-opacity:1;fill-rule:evenodd;stroke:none"
           d="m 503.5036,288.8154 -1.9535,2.5246 -1.6689,2.7211 -1.3647,2.8858 -1.0444,3.0164 -0.7118,3.1118 -0.371,3.1705 h 18.9195 l 0.5926,-2.0951 1.0067,-1.9306 -13.4045,-13.4045" /><path
           id="path24"
           style="fill:#000000;fill-opacity:1;fill-rule:evenodd;stroke:none"
           d="m 524.1005,278.6698 -3.2095,0.3617 -3.1507,0.7109 -3.0538,1.0515 -2.9204,1.3796 -2.7518,1.691 -2.5502,1.9821 13.397,13.397 1.3279,-0.7587 1.4229,-0.5605 1.4886,-0.3506 v -18.904" /><path
           id="path26"
           style="fill:#000000;fill-opacity:1;fill-rule:evenodd;stroke:none"
           d="m 545.3967,286.0948 -2.4648,-1.9718 -2.6616,-1.6966 -2.8279,-1.4022 -2.9617,-1.0915 -3.0614,-0.7684 -3.1261,-0.4364 v 19.0097 l 1.9526,0.6795 1.7844,1.0442 13.3665,-13.3665" /><path
           id="path28"
           style="fill:#000000;fill-opacity:1;fill-rule:evenodd;stroke:none"
           d="m 548.3194,289.1014 -13.4429,13.4428 0.8703,1.7854 0.5233,1.916 h 18.9196 l -0.472,-3.7249 -0.942,-3.6347 -1.3967,-3.4852 -1.8287,-3.2794 -2.2309,-3.02" /><path
           id="path30"
           style="fill:#000000;fill-opacity:1;fill-rule:evenodd;stroke:none"
           d="m 555.1521,310.4383 h -18.9878 l -0.6489,1.9544 -1.0133,1.7928 13.3789,13.3789 1.9564,-2.4732 1.6808,-2.6682 1.386,-2.8325 1.0752,-2.9645 0.7522,-3.0625 0.4205,-3.1252" /><path
           id="path32"
           style="fill:#000000;fill-opacity:1;fill-rule:evenodd;stroke:none"
           d="m 544.8908,330.5034 -13.4255,-13.4254 -1.6966,0.8682 -1.8243,0.5516 v 18.9591 l 3.6882,-0.5064 3.5948,-0.9675 3.4441,-1.4132 3.2384,-1.8363 2.9809,-2.2301" /><path
           id="path34"
           style="fill:#000000;fill-opacity:1;fill-rule:evenodd;stroke:none"
           d="m 496.4269,310.4383 0.005,0.7624 0.0206,0.1818 0.0638,0.5094 0.0773,0.5385 0.0869,0.5351 0.1101,0.603 0.1466,0.7563 0.0757,0.2906 0.087,0.3654 0.103,0.4082 0.1128,0.4209 0.1474,0.5503 0.1931,0.5931 0.0919,0.2821 0.091,0.2704 0.1969,0.6083 0.2715,0.6652 0.268,0.6564 0.3245,0.7399 0.2831,0.6039 0.2514,0.5083 0.325,0.623 0.2904,0.5279 0.2585,0.4493 0.4691,0.7718 0.6342,0.9657 0.2881,0.4128 0.3462,0.4771 0.3598,0.4752 0.3717,0.4709 0.3696,0.4494 0.5584,0.6461 13.3715,-13.3715 -1.0132,-1.7928 -0.6489,-1.9544 h -18.9878" /><path
           id="path36"
           style="fill:#000000;fill-opacity:1;fill-rule:evenodd;stroke:none"
           d="m 506.7084,330.4832 0.7043,0.5762 0.4738,0.3678 0.2883,0.2163 0.2495,0.1829 0.2451,0.1757 0.4355,0.3031 0.5079,0.339 0.4788,0.3059 0.5982,0.3643 0.6454,0.3717 0.746,0.4032 0.7722,0.3887 0.888,0.4128 0.8982,0.3817 0.3749,0.1491 0.4234,0.1613 0.495,0.1792 0.4066,0.1398 0.4332,0.1416 0.3898,0.1212 1.0652,0.3013 0.7378,0.1837 0.8481,0.1864 0.6691,0.1287 0.7586,0.1266 0.7498,0.1053 0.865,0.0972 0.8957,0.0734 v -18.8459 l -1.886,-0.553 -1.7522,-0.8904 -13.4052,13.4052" /><path
           id="path38"
           style="fill:#51a800;fill-opacity:0.50199998;fill-rule:evenodd;stroke:none"
           d="m 496.4269,373.854 3.5516,-3.1424 v -33.5119 l -3.5516,3.5446 v 33.1097" /><path
           id="path40"
           style="fill:#e60000;fill-opacity:0.65880001;fill-rule:evenodd;stroke:none"
           d="m 502.3526,368.6111 3.5517,-3.1423 v -34.1831 l -3.5517,3.5446 v 33.7808" /><path
           id="path42"
           style="fill:#51a800;fill-opacity:0.50199998;fill-rule:evenodd;stroke:none"
           d="m 511.83,360.2259 v -26.2791 l -0.4948,-0.2607 -1.7224,-1.0419 -1.3344,-0.9407 v 31.6648 l 3.5516,-3.1424" /><path
           id="path44"
           style="fill:#e60000;fill-opacity:0.65880001;fill-rule:evenodd;stroke:none"
           d="m 514.2041,335.0918 v 23.0336 l 3.5517,-3.1424 v -18.658 l -1.4163,-0.4231 -2.1354,-0.8101" /><path
           id="path46"
           style="fill:#51a800;fill-opacity:0.50199998;fill-rule:evenodd;stroke:none"
           d="m 520.1299,336.8942 v 15.9883 l 3.5516,-3.1423 v -12.4999 l -0.4905,0.0843 -1.1999,-0.1279 -1.5084,-0.2319 -0.3528,-0.0706" /><path
           id="path48"
           style="fill:#e60000;fill-opacity:0.65880001;fill-rule:evenodd;stroke:none"
           d="m 502.3526,325.8928 v 3.0169 l 1.3527,-1.3527 -1.3527,-1.6642" /><path
           id="path50"
           style="fill:#51a800;fill-opacity:0.50199998;fill-rule:evenodd;stroke:none"
           d="m 496.4269,310.4383 v 24.3971 l 3.5516,-3.5516 v -9.0195 l -0.5442,-0.9765 -1.7783,-4.3345 -0.8141,-3.1247 -0.3197,-1.8916 -0.0953,-1.4987" /></g></g><g
       id="g52"><g
         clip-path="url(#clipPath58)"
         id="g54"><g
           clip-path="url(#clipPath64)"
           id="g60"><g
             transform="matrix(1,0,0,-1,205.7918,387.8992)"
             id="g66"><text
               id="text70"
               style="font-variant:normal;font-weight:bold;font-size:116.54689789px;font-family:Menlo;-inkscape-font-specification:Menlo-Bold;writing-mode:lr-tb;fill:#000000;fill-opacity:1;fill-rule:nonzero;stroke:none"
               transform="translate(0,109.2627)"><tspan
                 id="tspan68"
                 y="0"
                 x="0 70.17289 140.34578 210.51866">DEXB</tspan></text>
</g></g></g></g><g
       id="g72"><g
         clip-path="url(#clipPath78)"
         id="g74"><g
           clip-path="url(#clipPath84)"
           id="g80"><g
             transform="matrix(1,0,0,-1,545.999,387.8992)"
             id="g86"><text
               id="text90"
               style="font-variant:normal;font-weight:bold;font-size:116.54689789px;font-family:Menlo;-inkscape-font-specification:Menlo-Bold;writing-mode:lr-tb;fill:#000000;fill-opacity:1;fill-rule:nonzero;stroke:none"
               transform="translate(0,109.2627)"><tspan
                 id="tspan88"
                 y="0"
                 x="0">T</tspan></text>
</g></g></g></g><g
       id="g92"><g
         clip-path="url(#clipPath98)"
         id="g94"><g
           clip-path="url(#clipPath104)"
           id="g100"><g
             transform="matrix(1,0,0,-1,214.0837,270.1107)"
             id="g106"><text
               id="text110"
               style="font-variant:normal;font-weight:normal;font-size:38.84896088px;font-family:Menlo;-inkscape-font-specification:Menlo-Regular;writing-mode:lr-tb;fill:#000000;fill-opacity:1;fill-rule:nonzero;stroke:none"
               transform="translate(0,36.4209)"><tspan
                 id="tspan108"
                 y="0"
                 x="0 23.390959 46.781918 70.172874 93.563835 116.9548 140.34575 163.73671 187.12767 210.51863 233.90959 257.30054 280.6915 304.08246 327.47342 350.86438 374.25534">MARKET MAKING BOT</tspan></text>
</g></g></g></g></g></svg>